<?xml version="1.0" standalone="no"?>
<!DOCTYPE svg PUBLIC "-//W3C//DTD SVG 20010904//EN"
 "http://www.w3.org/TR/2001/REC-SVG-20010904/DTD/svg10.dtd">
<svg version="1.0" xmlns="http://www.w3.org/2000/svg"
 width="600.000000pt" height="600.000000pt" viewBox="0 0 600.000000 600.000000"
 preserveAspectRatio="xMidYMid meet">
<metadata>
Created by potrace 1.14, written by Peter Selinger 2001-2017
</metadata>
<g transform="translate(0.000000,600.000000) scale(0.100000,-0.100000)"
fill="#000000" stroke="none">
<path d="M0 3000 l0 -3000 3000 0 3000 0 0 3000 0 3000 -3000 0 -3000 0 0
-3000z m3001 280 c202 -39 325 -231 263 -414 -21 -60 -103 -150 -167 -183 -62
-31 -143 -43 -220 -32 -222 30 -351 257 -256 447 45 91 117 148 221 176 65 18
90 19 159 6z m-1410 -836 c325 -56 562 -233 633 -473 14 -48 16 -145 16 -773
l0 -718 -325 0 -325 0 0 133 c0 74 -3 137 -6 140 -4 3 -29 -25 -56 -63 -76
-110 -158 -168 -298 -211 -65 -21 -95 -24 -225 -24 -224 1 -355 42 -469 145
-114 105 -156 205 -163 390 -8 204 34 326 152 446 116 117 294 181 588 209
348 35 427 68 427 183 0 50 -33 99 -85 126 -32 17 -58 21 -130 21 -80 0 -95
-3 -137 -28 -47 -27 -80 -70 -92 -119 l-6 -28 -324 0 -324 0 5 43 c3 23 16 76
29 117 78 248 305 429 611 484 111 20 386 20 504 0z m1699 -984 l0 -980 -355
0 -355 0 0 980 0 980 355 0 355 0 0 -980z"/>
<path d="M1475 1314 c-22 -8 -94 -26 -160 -39 -66 -13 -134 -29 -150 -35 -105
-40 -160 -150 -121 -243 54 -130 281 -139 420 -16 60 52 79 107 84 236 5 128
6 126 -73 97z"/>
</g>
</svg>
